<?xml version="1.0" encoding="UTF-8" standalone="no"?>
<!-- Created with Inkscape (http://www.inkscape.org/) -->

<svg
   width="152.22318mm"
   height="56.567093mm"
   viewBox="0 0 152.22318 56.567093"
   version="1.1"
   id="svg1"
   xml:space="preserve"
   sodipodi:docname="imputevss-logo.svg"
   inkscape:version="1.3.2 (091e20e, 2023-11-25, custom)"
   xmlns:inkscape="http://www.inkscape.org/namespaces/inkscape"
   xmlns:sodipodi="http://sodipodi.sourceforge.net/DTD/sodipodi-0.dtd"
   xmlns="http://www.w3.org/2000/svg"
   xmlns:svg="http://www.w3.org/2000/svg"><sodipodi:namedview
     id="namedview1"
     pagecolor="#ffffff"
     bordercolor="#000000"
     borderopacity="0.25"
     inkscape:showpageshadow="2"
     inkscape:pageopacity="0.0"
     inkscape:pagecheckerboard="0"
     inkscape:deskcolor="#d1d1d1"
     inkscape:document-units="mm"
     inkscape:zoom="1.8841305"
     inkscape:cx="287.66584"
     inkscape:cy="106.94588"
     inkscape:window-width="1920"
     inkscape:window-height="991"
     inkscape:window-x="-9"
     inkscape:window-y="-9"
     inkscape:window-maximized="1"
     inkscape:current-layer="layer1" /><defs
     id="defs1" /><g
     inkscape:label="Layer 1"
     inkscape:groupmode="layer"
     id="layer1"
     transform="translate(-28.180976,-149.02211)"><path
       style="fill:#054cae;stroke:none;stroke-width:0.336861"
       d="m 146.81014,149.26051 v 0.0891 l 2.5847,-0.17826 -2.5847,0.0891 m 3.56511,0 c 0.9088,0.67626 3.33171,0.61794 4.36725,0.26738 -1.04612,-0.63895 -3.22356,-0.60621 -4.36725,-0.26738 m -4.01075,0.0891 v 0.0891 h 0.35651 l -0.35651,-0.0891 m -3.83249,1.33691 c 1.1159,0.2041 2.40813,-0.11606 3.47598,-0.44791 0.42489,-0.13204 0.91281,-0.22761 1.15866,-0.62162 -1.19732,-0.22149 -3.80208,0.10091 -4.63464,1.06953 m 4.36725,-0.0891 c 1.11856,0.52274 2.46597,0.43735 3.65424,0.19545 0.24859,-0.0506 1.36322,-0.25647 1.08453,-0.69893 -0.22125,-0.35127 -0.89769,-0.37583 -1.26278,-0.38656 -0.92367,-0.0271 -3.13089,-0.27562 -3.47599,0.89004 m 8.11063,-0.6239 c 0.34776,1.18233 3.36863,1.49396 4.36726,1.15866 -0.6045,-1.18238 -3.21814,-1.372 -4.36726,-1.15866 m 3.03034,0 v 0.0891 l 3.74337,1.15866 c -0.85851,-0.69292 -2.65166,-1.15861 -3.74337,-1.24779 m -15.4191,0.17826 -3.92162,1.42604 v 0.0891 c 1.28383,-0.1896 2.88454,-0.78512 4.01075,-1.42605 l -0.0891,-0.0891 m 9.98231,0.48476 c -1.11701,0.1759 -1.43245,0.98062 -0.26739,1.48677 1.03019,0.44755 2.21107,0.50404 3.29773,0.25501 0.90375,-0.20711 0.9065,-0.94957 0.0891,-1.34249 -0.90065,-0.43292 -2.14,-0.55351 -3.11941,-0.39929 m -10.16056,0.44785 c -0.93109,0.16452 -1.87572,0.50614 -2.67349,1.01169 -0.7341,0.46521 -0.63196,1.00411 0.26704,0.93728 1.07178,-0.0797 2.2108,-0.48342 3.1194,-1.05158 1.14422,-0.71549 0.12875,-1.04612 -0.71295,-0.89739 m 3.20859,0.17832 c -0.61035,0.10986 -2.32826,0.54395 -2.26863,1.38334 0.0603,0.84948 1.81686,0.66596 2.35776,0.57038 0.64983,-0.11482 2.5318,-0.51218 2.43657,-1.451 -0.0795,-0.78405 -2.01509,-0.59462 -2.5257,-0.50272 m -10.33881,2.63243 c 1.08301,0.10998 2.39629,-0.75927 3.29772,-1.28568 0.41303,-0.2412 0.84005,-0.46422 0.98041,-0.94251 -1.40235,0.12245 -3.44991,1.07748 -4.27813,2.22819 m 28.61,-0.0891 c -0.21815,-1.20425 -1.87968,-1.7745 -2.94121,-2.01204 -0.32718,-0.0732 -1.11212,-0.30801 -1.32475,0.0899 -0.22014,0.41192 0.51596,0.91941 0.78998,1.09828 0.99308,0.64825 2.29027,1.10617 3.47598,0.82388 m -1.42604,-2.13906 c 0.49499,1.05254 2.62327,1.95832 3.74336,2.04993 -0.79264,-1.07617 -2.47338,-1.75612 -3.74336,-2.04993 m -12.65614,0.57389 c -0.30358,0.0478 -0.60401,0.12494 -0.89128,0.2341 -0.94725,0.35997 -1.50319,1.29554 -0.44557,1.95545 0.58744,0.36653 1.46975,0.42143 2.139,0.3169 0.32947,-0.0515 0.66619,-0.12356 0.98041,-0.2363 0.80607,-0.28922 1.65513,-1.19353 0.61997,-1.86316 -0.62078,-0.40157 -1.68613,-0.51971 -2.40253,-0.40699 m 7.21935,0.26966 c -1.05792,0.19253 -1.15416,1.1069 -0.34819,1.74762 0.88526,0.70375 2.35058,1.10935 3.46766,0.83729 0.94682,-0.2306 0.81002,-1.18789 0.17688,-1.70024 -0.8482,-0.68637 -2.21837,-1.08085 -3.29635,-0.88467 m -24.86664,3.1672 3.47598,-2.31733 -1.06953,0.4585 -2.40645,1.85883 m 7.04109,-2.09864 c -1.05592,0.13694 -2.09021,0.64571 -2.84817,1.39366 -0.3356,0.33117 -0.8426,1.18642 -0.004,1.22207 1.0782,0.0458 2.36725,-0.70452 3.11769,-1.4167 0.52386,-0.49713 0.74462,-1.33008 -0.26601,-1.19903 m 3.29773,0.26608 c -0.84253,0.13262 -1.81501,0.52472 -2.34827,1.22386 -0.76996,1.00948 0.47392,1.40072 1.27873,1.29593 0.821,-0.1069 1.84017,-0.46662 2.36911,-1.13645 0.84594,-1.07126 -0.38458,-1.52736 -1.29957,-1.38334 m -10.2497,3.08034 c 1.25382,0.34128 3.58491,-1.54011 3.92163,-2.67383 -1.33223,-0.3329 -3.51584,1.5126 -3.92163,2.67383 m 21.74717,-2.5433 c -1.09682,0.19777 -2.12459,1.24738 -1.05054,2.24112 0.67808,0.62739 1.86771,0.78234 2.74397,0.61702 1.04771,-0.19767 1.93955,-1.24516 0.9707,-2.16754 -0.64367,-0.61279 -1.80955,-0.84468 -2.66413,-0.6906 m 10.18092,0.13967 c -0.55833,0.33342 -0.10163,1.08013 0.1872,1.42192 0.53753,0.63611 2.49505,2.18852 3.42625,1.54385 0.51421,-0.35598 0.085,-1.01697 -0.21305,-1.34909 -0.55959,-0.62351 -2.45577,-2.18077 -3.4004,-1.61668 m 2.47522,-0.0919 c 0.38713,1.30627 2.30433,2.73348 3.65424,2.85209 -0.40855,-1.27983 -2.2964,-2.78165 -3.65424,-2.85209 m -20.32112,0.75442 c -0.64765,0.11678 -1.43195,0.43353 -1.77458,1.02847 -0.66571,1.15593 0.76248,1.70778 1.68545,1.54908 0.73042,-0.12559 1.56131,-0.42339 1.95284,-1.10412 0.7033,-1.22281 -0.97937,-1.63288 -1.86371,-1.47343 m 22.54931,0.0477 c 0.63128,0.89555 1.87739,1.99262 2.85209,2.49557 v -0.0891 l -2.85209,-2.40645 m -7.30847,0.1363 c -1.24515,0.11722 -1.17944,1.30148 -0.56295,2.09059 0.73767,0.94422 2.04487,1.50748 3.23678,1.31917 0.96172,-0.15195 0.93979,-1.204 0.47789,-1.85264 -0.65547,-0.92044 -1.99577,-1.66593 -3.15172,-1.55712 m -28.96651,0.22021 c -1.16049,0.71282 -2.83821,1.76517 -3.29773,3.11947 1.00171,-0.33224 1.84452,-1.32402 2.5812,-2.04196 0.29148,-0.28408 0.77587,-0.63512 0.71653,-1.07751 m 2.76296,1.64639 c -0.88866,0.15128 -1.74498,0.83742 -2.24574,1.56221 -0.23888,0.34576 -0.52063,1.25046 0.19752,1.20906 0.896,-0.0516 1.91378,-0.87153 2.41016,-1.56564 0.35161,-0.49169 0.52695,-1.35696 -0.36194,-1.20563 m 14.97346,0.27144 c -2.24181,0.47901 -1.39371,3.03852 0.71302,2.58146 2.24259,-0.48652 1.38682,-3.03013 -0.71302,-2.58146 m 7.84324,-0.004 c -1.20347,0.22704 -1.53888,1.42099 -0.8344,2.3612 0.53721,0.71696 1.65666,1.10632 2.52782,0.9423 1.02829,-0.19361 1.66096,-1.24476 1.01135,-2.18645 -0.57126,-0.8281 -1.71259,-1.30424 -2.70477,-1.11705 m -19.42985,0.17832 c -0.75602,0.12607 -1.57646,0.60554 -1.9483,1.29517 -0.46336,0.85936 0.2499,1.35996 1.05702,1.21849 0.70252,-0.12313 1.51016,-0.6641 1.83097,-1.30761 0.35619,-0.71446 -0.19904,-1.32955 -0.93969,-1.20605 m -9.18016,3.16685 c 1.31662,-0.20534 3.00098,-1.77064 3.11947,-3.11946 -1.32238,0.0311 -3.26378,1.71513 -3.11947,3.11946 m 40.90963,-2.85208 c 0.12826,1.46895 1.74851,3.57387 3.29773,3.65423 -0.19602,-1.45431 -1.74422,-3.5143 -3.29773,-3.65423 m -2.29696,0.26993 c -0.4885,0.29576 -0.27327,1.11393 -0.0655,1.51262 0.4353,0.83515 2.03999,2.95481 3.23335,2.22572 0.49082,-0.29987 0.22961,-1.02667 0.0395,-1.42357 -0.38503,-0.80365 -2.06765,-3.00479 -3.20736,-2.31477 m -39.14743,0.26484 -1.42605,1.69342 c 0.46346,-0.35443 1.2887,-1.12464 1.42605,-1.69342 m 43.31608,0 c 0.53748,1.24732 1.65343,2.69441 2.76296,3.47598 -0.3995,-1.26191 -1.6978,-2.72567 -2.76296,-3.47598 m -42.78132,0.44563 c -1.22771,0.77688 -2.30489,1.99092 -2.76296,3.38686 0.97209,-0.19613 1.81387,-1.4573 2.35377,-2.22819 0.23532,-0.33602 0.55447,-0.73874 0.40919,-1.15867 m 13.01265,0.32419 c -1.35693,0.12407 -2.36962,2.26343 -0.44564,2.07291 1.23905,-0.12269 2.1734,-2.23088 0.44564,-2.07291 m 22.81677,0.0833 c -0.8369,0.24101 -0.82758,1.24576 -0.54556,1.90978 0.45572,1.07302 1.84564,2.39169 3.12985,1.94754 0.84937,-0.29375 0.75417,-1.2864 0.45452,-1.94754 -0.47433,-1.0465 -1.77893,-2.27258 -3.03881,-1.90978 m -10.78452,1.41703 c -2.0201,0.35707 -1.28925,2.93801 0.62389,2.60252 1.90396,-0.33388 1.14518,-2.91521 -0.62389,-2.60252 m -27.6296,0.3145 c -0.78698,1.06179 -1.76622,2.18171 -2.13906,3.47598 h 0.0891 l 1.62142,-2.40645 0.42851,-1.06953 m 35.02726,0.59295 c -0.89232,0.28123 -1.00213,1.33686 -0.68103,2.08088 0.41077,0.95182 1.51354,1.61649 2.5523,1.26079 0.81324,-0.27848 0.96435,-1.25013 0.6891,-1.97381 -0.36338,-0.9554 -1.53264,-1.69177 -2.56037,-1.36786 m -30.12695,0.17275 c -0.71704,0.11329 -1.41208,0.91257 -1.6717,1.55162 -0.13652,0.33606 -0.21468,1.01978 0.33822,0.94011 0.7053,-0.10163 1.42397,-0.94408 1.68407,-1.564 0.14275,-0.34025 0.19108,-1.01331 -0.35059,-0.92773 m 14.35128,0.005 c -1.15293,0.36016 -0.91999,1.9773 0.35645,1.57707 1.12459,-0.35262 0.88037,-1.96343 -0.35645,-1.57707 m -18.98421,3.32868 c 0.89193,-0.28481 1.62656,-1.21722 2.00379,-2.04994 0.0978,-0.21597 0.35945,-0.7887 0.0812,-0.96858 -0.30987,-0.2003 -0.80299,0.30264 -1.00022,0.48649 -0.65116,0.607 -1.35673,1.60984 -1.08473,2.53203 m 46.61381,-2.85209 c -0.28902,1.21392 0.46861,2.66671 1.26429,3.56477 0.19981,0.22551 0.81346,0.92792 1.17751,0.70126 0.37125,-0.23115 0.0417,-1.12289 -0.0757,-1.41394 -0.44317,-1.09834 -1.12381,-2.53809 -2.36607,-2.85209 m -38.94882,0.32467 c -0.51411,0.13923 -0.99616,0.59821 -1.16912,1.10137 -0.16693,0.48563 0.11514,0.87432 0.63442,0.76666 0.50469,-0.10463 0.9917,-0.55467 1.16843,-1.03404 0.18475,-0.50114 -0.0517,-0.99161 -0.63373,-0.83399 m 36.81946,0.21292 c -0.54708,0.15473 -0.4555,1.01049 -0.36485,1.42322 0.20954,0.95394 1.2997,3.19114 2.57942,2.84926 0.58357,-0.1559 0.5018,-0.9756 0.40911,-1.42322 -0.20382,-0.98443 -1.30045,-3.22352 -2.62368,-2.84926 m 3.73366,-0.092 c 0.34968,1.51158 1.22869,2.87067 2.13906,4.09988 h 0.0891 c -0.10514,-1.20427 -1.13303,-3.51343 -2.22819,-4.09988 m -50.62455,3.8325 c 1.03499,-0.484 2.02594,-2.26069 2.04993,-3.38686 -1.13372,0.38567 -2.02566,2.24737 -2.04993,3.38686 m 44.1222,-2.34807 c -0.62405,0.20255 -0.77111,0.97591 -0.68985,1.54605 0.15787,1.10753 1.26727,2.97246 2.64571,2.42942 0.59062,-0.23268 0.6711,-0.99298 0.58614,-1.53814 -0.16707,-1.07207 -1.1881,-2.87677 -2.542,-2.43733 m -32.00043,7.07197 h 1.06953 v 0.9804 h -1.06953 v 0.98041 h 1.06953 v 0.98041 h 1.06953 v -0.98041 h -1.06953 v -0.98041 h 1.06953 v -0.9804 h -1.06953 v -0.89128 h 1.06953 l -0.0891,-3.65424 h 1.33692 l 0.0891,7.48674 1.5127,-0.14291 0.0916,-1.72878 -0.0891,-4.8129 c 0.35108,-0.10655 0.43575,-0.26866 0.35651,-0.62389 l -0.35651,0.17826 v -0.35652 h 1.24779 l 0.0891,3.56511 0.9804,0.0891 v 0.80215 l -0.9804,0.0891 -0.0891,0.89128 h 1.06953 v 0.9804 h -0.9804 v 0.98041 h 1.06953 v -0.98041 h 1.06953 l -0.0891,-0.9804 h -1.06953 l 0.0891,-0.89128 0.9804,-0.0891 v -6.59545 l -5.96805,-0.0129 -0.72003,-0.26367 -0.9769,0.2647 -0.71056,0.15474 -0.0916,1.72877 0.0891,4.8129 m 9.62579,-6.68458 v 9.53667 h 2.13907 v -6.95197 c 0,-0.57135 0.26887,-2.07579 -0.0916,-2.53092 -0.32788,-0.41398 -1.59051,-0.0632 -2.04747,-0.0538 m 5.70417,2.04994 v 4.54551 h 1.06954 v 0.98041 h -0.98041 v 0.98041 h 0.98041 v 0.89127 h 1.06953 c -8e-5,-0.83798 -0.14241,-0.98031 -0.9804,-0.9804 l -0.0891,-0.89128 c 0.2609,0 0.70848,0.0812 0.92662,-0.0916 0.8339,-0.66046 -0.52041,-0.97789 -0.92662,-0.97793 v -0.80215 c 0.4229,0.26597 1.14489,0.56937 1.30687,-0.17963 0.0752,-0.34755 -0.17902,-0.64621 -0.22454,-0.97904 -0.1089,-0.79626 -0.10193,-1.69051 -0.10193,-2.49557 l 2.40645,-0.0891 v -2.04994 h -4.72377 c -0.52489,0 -1.45673,-0.18031 -1.93248,0.0538 -0.43485,0.21398 -0.56044,1.73183 -0.10555,1.99369 0.54309,0.31263 1.68833,0.0916 2.30541,0.0916 m -27.54046,-1.6043 c -0.78649,0.95004 -1.35497,2.27124 -1.6043,3.47598 0.62412,-0.53108 1.85186,-2.63882 1.6043,-3.47598 m 33.42296,0.0662 c -1.46635,0.56304 -0.46755,2.90342 0.98028,2.34978 1.55461,-0.59447 0.52176,-2.92652 -0.98028,-2.34978 m 7.3976,1.6043 c -1.73779,0.66669 -0.30557,3.9199 1.33327,3.23067 1.62166,-0.682 0.37984,-3.8879 -1.33327,-3.23067 m -37.70109,2.51854 c 0.98676,-0.29308 1.36565,-1.18573 1.24779,-2.13906 -0.92108,0.13452 -1.60404,1.27773 -1.24779,2.13906 m -2.49558,0.71302 c 0.96284,-0.50366 1.4236,-1.72278 1.33692,-2.76296 -1.01123,0.28402 -1.62013,1.80484 -1.33692,2.76296 m 51.15932,-2.5847 c -0.64498,1.05287 -0.0326,2.64629 0.47893,3.65424 0.15966,0.31463 0.55674,1.10298 1.01148,0.9954 0.43412,-0.10271 0.30124,-1.04559 0.25302,-1.35191 -0.1912,-1.21466 -0.62403,-2.64887 -1.74343,-3.29773 m 1.33692,0.17825 c 1.4e-4,1.30938 0.42918,3.69325 1.51517,4.54552 -0.004,-1.32569 -0.46344,-3.65057 -1.51517,-4.54552 m -53.29839,0.44564 c -0.76557,0.8393 -1.24464,1.97962 -1.24779,3.11948 0.84657,-0.27878 1.58622,-2.31299 1.24779,-3.11948 m 6.32807,1.51518 c 0.41709,-0.0465 1.62536,-0.98298 0.92662,-1.41387 -0.68227,-0.42074 -0.99538,1.02475 -0.92662,1.41387 m 43.51338,-1.24174 c -1.09319,0.58217 -0.17936,2.94228 0.29717,3.64468 0.23001,0.33904 0.73119,0.85188 1.18933,0.62135 1.12972,-0.56848 0.20157,-2.9503 -0.28981,-3.64468 -0.23011,-0.32518 -0.74647,-0.8611 -1.19669,-0.62135 m -51.44575,1.33086 c -0.44679,1.07462 -0.888,2.11181 -0.89128,3.29773 h 0.0891 c 0.29321,-0.86667 1.18102,-2.39287 0.80215,-3.29773 m 11.49748,0.98041 c 0.40905,-0.14711 0.51161,-0.38051 0.53477,-0.80215 -0.45596,0.0943 -0.64584,0.34228 -0.53477,0.80215 m 37.17562,-0.62142 c -0.97812,0.54193 -0.55522,2.40817 -0.0416,3.11658 0.29137,0.40188 0.85449,0.80104 1.36531,0.53264 1.045,-0.54907 0.64508,-2.36393 0.11079,-3.11659 -0.30724,-0.4328 -0.89262,-0.83286 -1.4345,-0.53263 m -9.99125,0.24201 c -1.17224,0.44935 -0.53659,2.59607 0.70903,2.07194 1.13643,-0.47818 0.49199,-2.53232 -0.70903,-2.07194 m -15.77602,0.11203 0.0891,0.26738 -0.0891,-0.26738 m -24.06449,2.04994 v 0.26738 h 0.0891 l -0.0891,-0.26738 m 16.31037,0 v 0.17825 l 0.17826,-0.17825 h -0.17826 m 30.22263,0.15528 c -1.14374,0.47357 -0.67252,3.22767 0.70435,2.73181 1.29314,-0.46571 0.7046,-3.31519 -0.70435,-2.73181 m -46.62213,0.20123 v 0.35651 h 0.0891 l -0.0891,-0.35651 m 2.94122,0 c -0.37937,0.42265 -1.26406,1.92698 -0.35651,2.22819 0.37058,-0.61626 0.92123,-1.57872 0.35651,-2.22819 m 54.72443,0.17825 0.21607,3.38685 0.49695,1.24779 c 0.0976,-1.23705 0.29274,-3.70852 -0.71302,-4.63464 m -1.15866,0.0891 c -0.58811,1.03465 -0.42349,2.45471 -0.11176,3.56511 0.0806,0.28726 0.2992,1.14075 0.71948,1.07655 0.40818,-0.0624 0.45294,-0.95078 0.46051,-1.25481 0.0279,-1.12106 -0.099,-2.66673 -1.06823,-3.38685 m -56.59611,0.17826 v 0.35651 h 0.0891 l -0.0891,-0.35651 m 1.42604,0.0891 c -0.43103,0.61075 -1.00946,1.97802 -0.53477,2.67383 0.41281,-0.70994 0.87682,-1.85871 0.53477,-2.67383 m 5.43679,1.51517 c 0.46747,-0.23062 0.53033,-0.57878 0.53477,-1.06953 -0.52918,0.15222 -0.68048,0.561 -0.53477,1.06953 m 47.70012,-0.6175 c -0.91104,0.46019 -0.57132,2.54765 -0.30514,3.29134 0.13156,0.36757 0.52981,0.93086 0.99203,0.70662 0.97098,-0.47106 0.66513,-2.43914 0.33573,-3.2022 -0.15437,-0.35761 -0.52622,-1.0465 -1.02262,-0.79576 m -26.7551,0.0827 -0.0891,0.35651 0.0891,-0.35651 m 7.70364,0.18114 c -0.41276,0.27422 -0.153,1.1882 0.38669,0.88419 0.51749,-0.29149 0.1698,-1.2539 -0.38669,-0.88419 m -35.24411,0.0862 -0.44564,2.67383 c -0.28431,0.009 -0.66507,0.0436 -0.59034,0.43808 0.10169,0.53675 0.95301,0.79599 1.17249,1.31903 0.1835,0.43729 -0.0227,1.29821 0.0417,1.808 0.35065,-0.26663 0.34797,-0.83372 0.35651,-1.24779 h 0.0891 c 1.92829,4.47499 3.8669,8.95757 5.75548,13.45829 0.47262,1.12633 0.91735,2.26466 1.39977,3.38685 0.1435,0.3338 0.28022,1.02584 0.63394,1.19401 2.12813,1.01183 2.58203,-1.97632 3.11995,-3.33307 1.70988,-4.3127 3.1565,-8.76981 5.03242,-13.01265 0.38365,-0.86771 0.82589,-1.78153 1.4651,-2.492 0.46413,-0.51586 1.19583,-0.65953 1.22104,-1.42962 h -4.36726 c 0.0216,0.65679 0.47399,0.64343 0.86067,1.07889 0.32759,0.36891 0.40232,0.85029 0.38354,1.32756 -0.068,1.72902 -1.02289,3.50076 -1.65423,5.08028 -1.13575,2.84149 -2.22675,5.70329 -3.33335,8.55626 -1.6315,-2.86684 -2.64001,-6.23843 -3.94665,-9.26928 -0.65764,-1.52546 -1.85149,-3.41648 -2.00908,-5.08028 -0.0737,-0.77793 0.68821,-1.02317 0.6972,-1.78256 h -6.14981 c 0.15728,-0.76248 0.58103,-1.92637 0.26738,-2.67383 m 9.71492,0.89128 -0.0891,0.53476 0.26739,-0.53476 h -0.17826 m 33.06639,2.13906 v 0.0891 c -3.66395,0.87027 -5.4518,5.71337 -2.98894,8.64409 2.21121,2.63127 6.4166,2.55479 9.22788,4.23067 1.63571,0.97509 2.7335,2.81674 1.79947,4.68341 -2.15579,4.30832 -7.90707,1.33512 -10.03353,-1.24779 -0.65296,-0.79312 -1.21427,-1.66952 -1.68084,-2.58471 -0.0926,-0.18158 -0.33104,-0.84009 -0.64137,-0.61619 -0.28689,0.20699 -0.0605,1.10775 -0.0464,1.41834 0.0508,1.11851 -0.16977,3.66022 0.88784,4.25028 3.37219,1.88139 7.78133,2.02392 11.31916,0.65175 l -0.62389,0.89127 c 0.97606,-0.0736 1.99108,-1.90195 2.67383,-2.5847 l -1.51517,2.40645 c 0.9033,-0.63807 1.69412,-1.80883 2.04994,-2.85209 l -0.53477,0.44564 c 1.32749,-2.39388 2.00833,-5.60756 -0.27089,-7.73864 -0.8567,-0.80101 -2.0154,-1.33658 -3.11596,-1.7089 0.47878,-0.9949 -0.42138,-1.27802 -0.53477,-0.17826 -1.32768,-0.58852 -2.76821,-0.91419 -4.09988,-1.50286 -1.03943,-0.45949 -2.21956,-1.0492 -2.82065,-2.06225 -1.35597,-2.28527 0.84145,-4.21121 2.99891,-4.51876 2.4013,-0.3423 4.69066,0.94768 6.19982,2.73621 0.37692,0.44669 1.17311,1.24873 1.18368,1.87168 0.01,0.57007 -0.47809,1.06247 -0.41373,1.69343 0.0328,0.32154 0.25685,0.92335 0.67878,0.65402 0.55142,-0.35201 0.57269,-1.24103 0.5477,-1.81268 -0.0558,-1.27733 -0.17061,-2.55172 -0.17482,-3.83249 -0.002,-0.74283 0.10721,-1.72499 -0.23953,-2.40604 -0.69383,-1.36278 -1.52485,0.12947 -1.54296,0.97999 -2.65139,-0.68598 -5.56097,-0.74328 -8.19975,0 0.38047,-0.43916 0.64915,-2.20791 -0.43628,-1.67362 -0.81249,0.39994 -0.48051,1.61105 0.34715,1.67362 m -136.543693,-1.24779 0.656148,0.90063 0.487312,1.4167 0.01519,9.18015 -0.03817,7.30848 -0.376455,1.24737 -0.744038,0.98082 h 4.902025 c -0.07161,-0.4343 -0.395013,-0.50966 -0.66557,-0.81893 -0.297225,-0.33977 -0.409616,-0.7936 -0.4673,-1.23101 -0.567869,-4.30592 -0.114916,-8.93687 -0.114916,-13.28003 0,-1.42874 -0.484042,-4.6694 1.247786,-5.25854 v -0.44564 h -4.902104 m 113.905245,14.34972 c 0,1.31172 0.16942,2.61517 0.25941,3.92162 0.029,0.42161 -0.0733,1.1882 0.24001,1.51923 0.85034,0.89838 2.79239,1.27332 3.95697,1.51077 4.15118,0.8464 9.73993,0.28811 10.90439,-4.6343 0.14805,-0.62579 0.14847,-1.23252 0.14745,-1.87168 -0.008,-4.84404 -6.0105,-5.49337 -9.44754,-6.98979 -1.9317,-0.84102 -4.0859,-2.88372 -2.4275,-5.03895 2.21542,-2.87911 6.63477,-1.19037 8.66513,0.88777 0.63689,0.65188 1.38867,2.55381 2.31863,2.5847 0,-1.10794 0.0152,-2.28728 -0.11458,-3.38685 -0.035,-0.29643 0.0268,-0.85329 -0.15527,-1.09608 -0.1795,-0.2393 -0.62016,-0.29085 -0.88881,-0.36751 -0.85102,-0.24285 -1.70927,-0.38719 -2.58471,-0.50884 -3.60634,-0.50112 -8.65412,-0.22053 -10.20835,3.75499 -0.27842,0.71215 -0.40422,1.55714 -0.33286,2.31732 0.40695,4.33521 4.70053,5.04016 8.13477,6.26638 1.45986,0.52126 3.18152,1.19991 3.95326,2.64639 1.07894,2.02233 -0.25576,4.33715 -2.34897,4.92465 -1.67555,0.47028 -3.51879,-0.008 -4.99115,-0.85043 -1.5103,-0.86401 -2.72785,-2.26252 -3.64949,-3.71771 -0.36378,-0.57437 -0.67831,-1.81185 -1.43079,-1.87168 m 37.96842,-12.2105 c -0.50368,1.34253 -0.52734,3.23446 -0.26739,4.63464 h 0.0891 c 0.27306,-1.1941 0.93189,-3.53299 0.17826,-4.63464 m -81.997519,4.27813 c 0.462132,0 1.358849,-0.17223 1.754226,0.0916 0.290073,0.19357 0.206563,0.68019 0.206583,0.97793 v 2.76296 7.0411 c 0,1.17375 0.12355,2.6236 1.07311,3.44668 1.50508,1.30461 3.73952,0.41455 5.07671,-0.66633 0.46128,-0.37286 1.4953,-1.05842 1.24778,-1.71082 h -0.0891 c -1.52677,1.49528 -4.34043,2.46612 -4.91915,-0.44564 -0.247,-1.24277 -0.072,-2.65684 -0.072,-3.92162 v -7.57586 h 3.38686 c 0.44545,0 0.96569,0.12354 1.15866,-0.35651 h -4.54551 v -3.74336 c -1.25791,0.0948 -2.490824,2.03628 -3.386853,2.82664 -0.425877,0.37565 -0.846134,0.67427 -0.89128,1.27323 m 72.201783,-4.00435 c -0.79098,0.38109 -0.56229,2.40509 0.33169,1.93674 0.70065,-0.36706 0.56342,-2.368 -0.33169,-1.93674 m -17.65561,0.0827 -0.0891,0.35651 0.26738,-0.35651 h -0.17825 m 26.0253,4.54551 c 0.94903,-0.49336 0.92565,-2.38362 0.81598,-3.29772 -0.0339,-0.28245 -0.0269,-0.89614 -0.3231,-1.05385 -0.38944,-0.20735 -0.60012,0.7386 -0.64343,0.96472 -0.20868,1.08983 -0.23884,2.34224 0.15055,3.38685 m -57.13088,-3.65423 0.0891,2.22819 h 0.0891 c 0,-0.62845 0.21041,-1.71516 -0.17826,-2.22819 m 38.3622,0.0933 c -0.29325,0.19308 -0.19526,0.83008 0.2114,0.612 0.37914,-0.20333 0.20286,-0.88477 -0.2114,-0.612 m 17.16686,0.44915 c -0.85408,0.38648 -0.76914,2.00003 -0.70718,2.75525 0.0255,0.31112 0.15947,0.97474 0.6111,0.8199 0.88404,-0.3031 0.8814,-2.0501 0.79012,-2.7807 -0.0409,-0.32697 -0.23418,-1.00255 -0.69404,-0.79445 m -47.77495,0.79445 v 0.26738 l 0.17826,-0.26738 h -0.17826 m 36.99599,0.81783 c -0.39669,0.16946 -0.445,1.16616 0.0754,0.94904 0.4145,-0.17295 0.43615,-1.16757 -0.0754,-0.94904 M 35.578718,196.94382 v 0.44564 h 4.723772 c -0.107759,-0.66257 -0.873544,-0.96467 -1.029164,-1.69343 -0.50645,-2.37168 -0.129496,-5.15447 -0.129496,-7.57585 0,-0.72399 -0.266127,-2.1089 0.0916,-2.74749 0.287281,-0.51283 1.109777,-0.88522 1.601823,-1.1731 2.059735,-1.20508 5.181981,-1.70798 6.218515,1.0685 0.562643,1.50711 0.376938,3.2359 0.376938,4.81289 0,1.79173 0.229518,3.76616 -0.148752,5.52593 -0.167689,0.78011 -0.988543,1.11248 -1.099036,1.78255 h 4.812897 l -0.763844,-0.98178 -0.386839,-1.33554 -0.0971,-6.32807 -0.178256,-3.38685 c 2.132769,-0.90162 4.74683,-3.59532 7.129877,-1.41669 1.114317,1.01873 1.248131,2.5811 1.248131,4.00139 v 5.7933 c 0,1.09468 0.109685,2.77713 -1.158661,3.2086 v 0.44564 h 4.72377 c -0.07706,-0.47385 -0.4804,-0.61135 -0.744037,-0.98178 -0.2951,-0.41463 -0.372418,-1.01679 -0.406646,-1.5138 -0.189597,-2.75296 0.100516,-5.53504 -0.08913,-8.28888 -0.154606,-2.24504 -1.071443,-4.03977 -3.48396,-4.37888 -0.644642,-0.0906 -1.228033,-0.0546 -1.871682,0.0255 -0.871368,0.10853 -1.709921,0.4309 -2.495577,0.8113 -1.047221,0.50704 -2.06146,1.17657 -2.941215,1.93777 -0.296327,-1.72092 -1.785786,-2.58509 -3.386854,-2.77678 -2.645171,-0.31671 -4.894414,1.12053 -6.951963,2.59852 0,-0.53775 0.269755,-2.14671 -0.142906,-2.52735 -0.231885,-0.21388 -0.604874,-0.004 -0.8375,0.10041 -0.509512,0.22956 -2.365032,0.71646 -2.517721,1.28341 -0.08822,0.32759 0.447398,0.58455 0.621283,0.79087 0.310178,0.36805 0.387912,0.86946 0.444878,1.33307 0.336504,2.73851 0.02658,5.70654 0.0255,8.46713 -3.36e-4,0.98482 -0.06847,2.30297 -1.158659,2.67383 m 27.807854,8.64539 h 4.723771 c -0.05968,-0.75113 -0.979709,-1.25077 -1.119531,-2.13906 -0.358046,-2.27468 -0.128257,-4.74082 -0.128257,-7.04109 1.116495,0.52128 2.140969,1.06017 3.386853,1.222 3.620385,0.47024 7.087266,-1.58321 8.281862,-5.05449 1.42958,-4.15411 -0.354944,-10.64978 -5.697157,-10.42444 -2.36726,0.0999 -3.944436,1.30964 -5.971558,2.31381 0,-0.41339 0.229004,-1.96415 -0.142908,-2.20295 -0.212891,-0.1367 -0.55034,0.0544 -0.74837,0.14063 -0.503911,0.21934 -2.367815,0.72101 -2.517722,1.27537 -0.09312,0.34435 0.843128,1.05582 0.956678,1.49997 0.355649,1.39111 0.135,3.02925 0.135,4.45639 0,4.30505 0.39279,8.81814 -0.01513,13.10178 -0.05333,0.56005 -0.101357,1.19158 -0.378587,1.69308 -0.253125,0.4579 -0.721949,0.602 -0.764943,1.159 m 29.323026,-10.87356 c 0,0.71219 -0.217736,1.89212 0.325223,2.45692 0.539543,0.56126 2.498361,0.21691 3.239889,0.21691 -0.07707,-0.47385 -0.4804,-0.61135 -0.744041,-0.98178 -0.308952,-0.43409 -0.388276,-1.08215 -0.411112,-1.60292 -0.128431,-2.92892 -0.0035,-5.89162 -0.0035,-8.82365 0,-0.96007 0.335193,-2.67491 -0.05378,-3.55156 -0.160918,-0.36267 -0.568378,-0.17739 -0.837496,-0.0645 -0.595395,0.24975 -2.260474,0.67138 -2.577002,1.24332 -0.184768,0.33386 0.332313,0.58819 0.517506,0.77774 0.372116,0.38086 0.499962,0.8976 0.53635,1.41675 0.136048,1.94107 0.008,3.93627 0.008,5.88243 0,0.67362 0.213708,1.79583 -0.0916,2.40645 -0.720104,1.44021 -3.02435,2.44034 -4.543039,2.56924 -1.679244,0.14252 -2.899667,-1.10889 -3.226068,-2.65836 -0.594229,-2.82091 -0.249914,-5.95115 -0.249914,-8.82365 0,-0.72594 0.28009,-2.16754 -0.05378,-2.81309 -0.169595,-0.32792 -0.605103,-0.0802 -0.837499,0.023 -0.711019,0.31567 -1.992879,0.59965 -2.529205,1.16795 -0.326664,0.34613 0.638419,0.87942 0.796373,1.17688 0.526564,0.99162 0.306789,2.48146 0.306789,3.56477 0,2.2798 -0.445589,5.11421 0.606976,7.21935 2.137304,4.2746 7.446812,1.57202 9.820969,-0.80215 m 30.303436,-1.15867 v -0.0891 l -0.35651,-0.26739 c -2.50045,3.27271 -7.80531,3.53627 -10.34776,0.17826 -1.35236,-1.78617 -1.3338,-3.77152 -1.32797,-5.88243 h 11.76486 c -0.009,-3.39818 -3.15137,-5.48328 -6.32807,-5.34416 -2.56455,0.11231 -4.94161,1.3924 -6.34018,3.5616 -3.11764,4.8355 -0.37122,11.98814 5.80541,12.03183 3.10788,0.022 5.22086,-1.99612 7.13022,-4.18859 m -2.67383,-6.41719 h -6.23896 l -3.03034,-0.0891 c 0.42552,-1.51068 0.98228,-2.94746 2.40644,-3.79013 3.00175,-1.77611 6.45679,0.73476 6.86284,3.87926 m -49.733267,-3.89581 c 4.894425,-0.63603 6.679341,5.27063 6.174913,9.15436 -0.311637,2.39937 -1.448565,4.38051 -4.035848,4.69826 -2.344667,0.28796 -5.087946,-1.51869 -5.710638,-3.80698 -0.394155,-1.44845 -0.171792,-3.14654 -0.171792,-4.63464 0,-0.89902 -0.372673,-2.89518 0.142906,-3.64592 0.676145,-0.98453 2.467763,-1.61789 3.600459,-1.76508 m 84.493097,0.5981 v 0.17826 h 0.17825 v -0.17826 h -0.17825 m -32.70988,0.0891 c 0,0.51519 -0.0956,1.34967 0.35651,1.69343 l -0.35651,-1.69343 m 57.22,0.17825 c -0.49887,1.29327 -0.87079,2.71321 -0.9804,4.09988 h 0.0891 c 0.42158,-1.02764 1.35475,-2.99539 0.89127,-4.09988 m -0.9804,0.53477 c -0.68596,1.04014 -1.34994,2.84974 -0.98041,4.09988 1.12201,-0.92971 1.21572,-2.77156 1.15866,-4.09988 h -0.17825 m -2.85209,4.63464 c 1.22752,-0.18994 1.49884,-2.23569 1.24779,-3.2086 -1.22018,0.34344 -1.37882,2.17182 -1.24779,3.2086 m 2.40645,0.17826 -1.42604,3.29772 h 0.0891 c 0.43217,-0.73282 1.59241,-2.43371 1.33692,-3.29772 m -0.89128,0.62389 c -0.67324,1.02226 -1.46005,2.2118 -1.51517,3.47598 1.01402,-0.74855 1.46329,-2.2899 1.69343,-3.47598 h -0.17826 m -6.50632,0.6239 -0.17826,0.53476 c 0.22726,-0.15201 0.30512,-0.28617 0.17826,-0.53476 m 2.04994,2.76296 c -0.43083,0.45148 -0.74629,0.88009 -0.80215,1.51517 0.54973,-0.15562 1.1851,-0.96236 0.80215,-1.51517 m -3.2086,2.13906 -0.26739,0.53477 z"
       id="path1" /></g></svg>
